HIERARCHY
ROOT hip
{
  OFFSET 0 0 0
  CHANNELS 6 Xposition Yposition Zposition Zrotation Yrotation Xrotation
  JOINT abdomen
  {
    OFFSET 0 20.6881 -0.73152
    CHANNELS 3 Zrotation Xrotation Yrotation
    JOINT chest
    {
      OFFSET 0 11.7043 -0.48768
      CHANNELS 3 Zrotation Xrotation Yrotation
      JOINT neck
      {
        OFFSET 0 22.1894 -2.19456
        CHANNELS 3 Zrotation Xrotation Yrotation
        JOINT head
        {
          OFFSET -0.24384 7.07133 1.2192
          CHANNELS 3 Zrotation Xrotation Yrotation
          JOINT leftEye
          {
            OFFSET 4.14528 8.04674 8.04672
            CHANNELS 3 Zrotation Xrotation Yrotation
            End Site
            {
              OFFSET 1 0 0
            }
          }
          JOINT rightEye
          {
            OFFSET -3.6576 8.04674 8.04672
            CHANNELS 3 Zrotation Xrotation Yrotation
            End Site
            {
              OFFSET 1 0 0
            }
          }
        }
      }
      JOINT rCollar
      {
        OFFSET -2.68224 19.2634 -4.8768
        CHANNELS 3 Zrotation Xrotation Yrotation
        JOINT rShldr
        {
          OFFSET -8.77824 -1.95073 1.46304
          CHANNELS 3 Zrotation Xrotation Yrotation
          JOINT rForeArm
          {
            OFFSET -28.1742 -1.7115 0.48768
            CHANNELS 3 Zrotation Xrotation Yrotation
            JOINT rHand
            {
              OFFSET -22.5879 0.773209 7.07136
              CHANNELS 3 Zrotation Xrotation Yrotation
              JOINT rThumb1
              {
                OFFSET -1.2192 -0.487915 3.41376
                CHANNELS 3 Zrotation Xrotation Yrotation
                JOINT rThumb2
                {
                  OFFSET -3.37035 -0.52449 3.41376
                  CHANNELS 3 Zrotation Xrotation Yrotation
                  End Site
                  {
                    OFFSET -1.78271 -1.18214 1.43049
                  }
                }
              }
              JOINT rIndex1
              {
                OFFSET -7.75947 0.938293 5.60832
                CHANNELS 3 Zrotation Xrotation Yrotation
                JOINT rIndex2
                {
                  OFFSET -2.54057 -0.884171 1.56538
                  CHANNELS 3 Zrotation Xrotation Yrotation
                  End Site
                  {
                    OFFSET -1.62519 -0.234802 1.16502
                  }
                }
              }
              JOINT rMid1
              {
                OFFSET -8.24714 1.18213 3.41376
                CHANNELS 3 Zrotation Xrotation Yrotation
                JOINT rMid2
                {
                  OFFSET -3.10165 -0.590103 1.0647
                  CHANNELS 3 Zrotation Xrotation Yrotation
                  End Site
                  {
                    OFFSET -2.48547 -0.328903 0.83742
                  }
                }
              }
              JOINT rRing1
              {
                OFFSET -8.82822 0.546677 1.51678
                CHANNELS 3 Zrotation Xrotation Yrotation
                JOINT rRing2
                {
                  OFFSET -2.60934 -0.819778 -0.0198488
                  CHANNELS 3 Zrotation Xrotation Yrotation
                  End Site
                  {
                    OFFSET -2.33842 -0.294052 0.168128
                  }
                }
              }
              JOINT rPinky1
              {
                OFFSET -8.27202 -0.0477905 -0.4584
                CHANNELS 3 Zrotation Xrotation Yrotation
                JOINT rPinky2
                {
                  OFFSET -1.82734 -0.647385 -0.700984
                  CHANNELS 3 Zrotation Xrotation Yrotation
                  End Site
                  {
                    OFFSET -1.69225 -0.51767 -0.607171
                  }
                }
              }
            }
          }
        }
      }
      JOINT lCollar
      {
        OFFSET 2.68224 19.2634 -4.8768
        CHANNELS 3 Zrotation Xrotation Yrotation
        JOINT lShldr
        {
          OFFSET 8.77824 -1.95073 1.46304
          CHANNELS 3 Zrotation Xrotation Yrotation
          JOINT lForeArm
          {
            OFFSET 28.1742 -1.7115 0.48768
            CHANNELS 3 Zrotation Xrotation Yrotation
            JOINT lHand
            {
              OFFSET 22.5879 0.773209 7.07136
              CHANNELS 3 Zrotation Xrotation Yrotation
              JOINT lThumb1
              {
                OFFSET 1.2192 -0.487915 3.41376
                CHANNELS 3 Zrotation Xrotation Yrotation
                JOINT lThumb2
                {
                  OFFSET 3.37035 -0.52449 3.41376
                  CHANNELS 3 Zrotation Xrotation Yrotation
                  End Site
                  {
                    OFFSET 1.78271 -1.18214 1.43049
                  }
                }
              }
              JOINT lIndex1
              {
                OFFSET 7.75947 0.938293 5.60832
                CHANNELS 3 Zrotation Xrotation Yrotation
                JOINT lIndex2
                {
                  OFFSET 2.54057 -0.884171 1.56538
                  CHANNELS 3 Zrotation Xrotation Yrotation
                  End Site
                  {
                    OFFSET 1.62519 -0.234802 1.16502
                  }
                }
              }
              JOINT lMid1
              {
                OFFSET 8.24714 1.18213 3.41376
                CHANNELS 3 Zrotation Xrotation Yrotation
                JOINT lMid2
                {
                  OFFSET 3.10165 -0.590103 1.0647
                  CHANNELS 3 Zrotation Xrotation Yrotation
                  End Site
                  {
                    OFFSET 2.48547 -0.328903 0.83742
                  }
                }
              }
              JOINT lRing1
              {
                OFFSET 8.82822 0.546677 1.51678
                CHANNELS 3 Zrotation Xrotation Yrotation
                JOINT lRing2
                {
                  OFFSET 2.60934 -0.819778 -0.0198488
                  CHANNELS 3 Zrotation Xrotation Yrotation
                  End Site
                  {
                    OFFSET 2.33842 -0.294052 0.168128
                  }
                }
              }
              JOINT lPinky1
              {
                OFFSET 8.27202 -0.0477905 -0.4584
                CHANNELS 3 Zrotation Xrotation Yrotation
                JOINT lPinky2
                {
                  OFFSET 1.82734 -0.647385 -0.700984
                  CHANNELS 3 Zrotation Xrotation Yrotation
                  End Site
                  {
                    OFFSET 1.69225 -0.51767 -0.607171
                  }
                }
              }
            }
          }
        }
      }
    }
  }
  JOINT rButtock
  {
    OFFSET -8.77824 4.35084 1.2192
    CHANNELS 3 Zrotation Xrotation Yrotation
    JOINT rThigh
    {
      OFFSET 0 -1.70687 -2.19456
      CHANNELS 3 Zrotation Xrotation Yrotation
      JOINT rShin
      {
        OFFSET 0 -36.8199 0.73152
        CHANNELS 3 Zrotation Xrotation Yrotation
        JOINT rFoot
        {
          OFFSET 0.73152 -45.1104 -5.12064
          CHANNELS 3 Zrotation Xrotation Yrotation
          End Site
          {
            OFFSET -1.1221 -3.69964 12.103
          }
        }
      }
    }
  }
  JOINT lButtock
  {
    OFFSET 8.77824 4.35084 1.2192
    CHANNELS 3 Zrotation Xrotation Yrotation
    JOINT lThigh
    {
      OFFSET 0 -1.70687 -2.19456
      CHANNELS 3 Zrotation Xrotation Yrotation
      JOINT lShin
      {
        OFFSET 0 -36.8199 0.73152
        CHANNELS 3 Zrotation Xrotation Yrotation
        JOINT lFoot
        {
          OFFSET -0.73152 -45.1104 -5.12064
          CHANNELS 3 Zrotation Xrotation Yrotation
          End Site
          {
            OFFSET 1.1221 -3.69964 12.103
          }
        }
      }
    }
  }
}
MOTION
Frames:	6
Frame Time:	0.00833333
-5.47751 84.2564 36.3673 0.0 0.0 0.0 -1.24153 -0.00398111 -0.0340793 -0.342498 -0.0024924 -0.059328 -2.43246e-14 7.95139e-16 -2.11209e-16 -7.27272e-14 3.18055e-15 -6.35179e-16 -0.0 0.0 0.0 -0.0 0.0 0.0 -1.19786e-14 -2.50422e-17 4.96962e-17 -2.52549e-13 -6.95746e-16 -1.59028e-15 -4.37103e-12 1.2923e-12 -9.54166e-15 -5.0071e-11 -1.40762e-12 -4.70722e-13 -1.18104e-10 -2.47722e-13 -1.02414e-12 -2.03971e-10 -4.26194e-13 -1.76123e-12 -1.18103e-10 -2.48481e-13 -1.03368e-12 7.73091 5.47488 0.417314 -1.18105e-10 -2.48183e-13 -1.01778e-12 2.90554 0.965183 0.102902 -1.181e-10 -2.47586e-13 -1.02255e-12 10.2786 0.731801 0.0259123 -1.18112e-10 -2.44108e-13 -1.01142e-12 2.22167 -0.733487 -0.20892 -1.21745e-14 -2.36833e-17 -2.48481e-16 -2.549e-13 -5.96354e-16 -3.97569e-15 -4.37848e-12 -1.3251e-12 -1.27222e-14 -5.00654e-11 1.22638e-12 -4.64361e-13 -1.18098e-10 -2.12096e-13 -1.02414e-12 -2.03939e-10 -3.59403e-13 -1.77236e-12 -1.18102e-10 -2.127e-13 -1.01778e-12 -7.73091 5.47488 -0.417314 -1.18097e-10 -2.12898e-13 -1.02732e-12 -2.90554 0.965183 -0.102902 -1.18102e-10 -2.12203e-13 -1.02811e-12 -10.2786 0.731801 -0.0259123 -1.1809e-10 -2.08326e-13 -1.03686e-12 -2.22167 -0.733487 0.20892 -2.03217e-16 0.0 -3.88251e-19 -0.453608 -1.92099 -0.009531 -0.0091573 -2.07857 -0.0755672 -0.487698 3.99699 0.136689 2.03217e-16 0.0 3.88251e-19 -1.43705 -5.97118 0.129651 -0.0012658 5.25801 -0.0454282 0.50758 0.71072 -0.0722454
-6.65443 84.5468 36.184 -3.9393 -2.6804 -0.541 -0.678633 0.167437 0.711945 -0.587509 -0.713828 0.108484 -0.879638 2.62507 -0.669807 1.13944 -2.2627 -1.15223 -0.0 0.0 0.0 -0.0 0.0 0.0 2.30492e-14 -5.73644e-15 4.75938e-14 23.3553 5.48736 -4.35316 -6.05563 -3.2527 8.85063 0.042946 4.59966 0.638939 -3.85205e-10 3.83619e-10 -2.77797e-11 -6.65621e-10 6.61084e-10 -4.30775e-11 -3.85203e-10 3.83619e-10 -2.77873e-11 7.73091 5.47488 0.417314 -3.85207e-10 3.83619e-10 -2.77748e-11 2.90554 0.965183 0.102902 -3.852e-10 3.83619e-10 -2.77788e-11 10.2786 0.731801 0.0259123 -3.85211e-10 3.83622e-10 -2.77704e-11 2.22167 -0.733487 -0.20892 2.28777e-14 -5.73517e-15 4.72479e-14 -23.6328 6.87181 2.53689 5.40256 -2.74757 -8.09607 -0.0179395 2.97174 -0.415624 -2.93449e-10 -3.48075e-10 -8.38702e-11 -5.07308e-10 -6.00812e-10 -1.42748e-10 -2.93457e-10 -3.48075e-10 -8.38573e-11 -7.73091 5.47488 -0.417314 -2.93448e-10 -3.48075e-10 -8.38716e-11 -2.90554 0.965183 -0.102902 -2.93453e-10 -3.48074e-10 -8.38742e-11 -10.2786 0.731801 -0.0259123 -2.93443e-10 -3.48071e-10 -8.38811e-11 -2.22167 -0.733487 0.20892 -2.03217e-16 0.0 -3.88251e-19 -1.09939 0.646534 -0.804681 -0.0053477 -2.07912 -0.0418816 -0.601807 -0.140622 -1.82703 2.03217e-16 0.0 3.88251e-19 0.21652 -3.62667 -2.2304 -0.0144843 5.37883 -0.0848454 -0.0498778 -3.05796 5.75411
-6.64261 84.5453 36.1834 -3.8946 -2.6558 -0.5382 -0.0894775 0.348599 1.5006 -0.841822 -1.46719 0.285931 -1.7425 5.40092 -1.37972 2.23984 -4.65376 -2.37104 -0.0 0.0 0.0 -0.0 0.0 0.0 6.33388e-14 -1.24104e-14 1.01017e-13 48.965 11.1844 -9.09008 -11.3777 -6.43275 18.2973 -0.0245803 9.45751 1.32784 -7.02603e-10 8.3446e-10 -6.51217e-11 -1.21429e-09 1.43809e-09 -1.01832e-10 -7.026e-10 8.34459e-10 -6.51272e-11 7.73091 5.47488 0.417314 -7.02606e-10 8.3446e-10 -6.51183e-11 2.90554 0.965183 0.102902 -7.02596e-10 8.34459e-10 -6.51214e-11 10.2786 0.731801 0.0259123 -7.02607e-10 8.3446e-10 -6.51159e-11 2.22167 -0.733487 -0.20892 6.31918e-14 -1.24091e-14 1.00616e-13 -49.295 14.0905 5.34343 10.2775 -5.46864 -16.7127 0.0102222 6.11384 -0.858879 -5.00076e-10 -7.49058e-10 -1.87104e-10 -8.64848e-10 -1.29301e-09 -3.18632e-10 -5.00088e-10 -7.49057e-10 -1.87084e-10 -7.73091 5.47488 -0.417314 -5.00075e-10 -7.49056e-10 -1.87104e-10 -2.90554 0.965183 -0.102902 -5.00081e-10 -7.49055e-10 -1.87109e-10 -10.2786 0.731801 -0.0259123 -5.00073e-10 -7.49052e-10 -1.87113e-10 -2.22167 -0.733487 0.20892 -2.03217e-16 0.0 -3.88251e-19 -1.70535 3.35832 -1.64486 -0.0013167 -2.07969 -0.00624449 -1.03132 -4.50394 -3.91549 2.03217e-16 0.0 3.88251e-19 2.17313 -1.14931 -4.71738 -0.0282667 5.50588 -0.126449 0.19425 -6.92363 11.9883
-6.63863 84.5458 36.1854 -3.8823 -2.6421 -0.5469 0.43377 0.509934 2.20407 -1.06502 -2.13644 0.444391 -2.45334 7.8709 -2.02641 3.14385 -6.77709 -3.47834 -0.0 0.0 0.0 -0.0 0.0 0.0 9.3105e-14 -1.71592e-14 1.42682e-13 72.6289 16.0747 -13.5383 -15.2425 -8.8284 26.8519 -0.186636 13.792 1.96739 -9.19407e-10 1.15135e-09 -8.12908e-11 -1.58892e-09 1.9841e-09 -1.2571e-10 -9.19403e-10 1.15135e-09 -8.12947e-11 7.73091 5.47488 0.417314 -9.19411e-10 1.15135e-09 -8.1289e-11 2.90554 0.965183 0.102902 -9.19399e-10 1.15135e-09 -8.12913e-11 10.2786 0.731801 0.0259123 -9.19409e-10 1.15135e-09 -8.12883e-11 2.22167 -0.733487 -0.20892 9.29822e-14 -1.71581e-14 1.42241e-13 -72.822 20.4482 8.06737 13.9388 -7.58578 -24.4883 0.0768588 8.91334 -1.26042 -6.44152e-10 -1.0438e-09 -2.49562e-10 -1.11404e-09 -1.80172e-09 -4.24698e-10 -6.44166e-10 -1.0438e-09 -2.49536e-10 -7.73091 5.47488 -0.417314 -6.4415e-10 -1.0438e-09 -2.4956e-10 -2.90554 0.965183 -0.102902 -6.44156e-10 -1.0438e-09 -2.49566e-10 -10.2786 0.731801 -0.0259123 -6.4415e-10 -1.0438e-09 -2.4957e-10 -2.22167 -0.733487 0.20892 -2.03217e-16 0.0 -3.88251e-19 -2.17642 5.7767 -2.40707 0.00227343 -2.08021 0.0254897 -1.68543 -8.37337 -5.81601 2.03217e-16 0.0 3.88251e-19 4.10141 1.04644 -6.93686 -0.0404202 5.62045 -0.163729 1.12586 -10.1505 17.6676
-6.63914 84.5475 36.1898 -3.8941 -2.621 -0.5669 0.801698 0.622026 2.69452 -1.21931 -2.59549 0.555106 -2.91454 9.58025 -2.49897 3.74955 -8.2414 -4.28642 -0.0 0.0 0.0 -0.0 0.0 0.0 9.65629e-14 -1.70955e-14 1.54953e-13 89.5922 19.3178 -16.8066 -17.4917 -10.1505 32.8897 -0.360263 16.8248 2.43569 -8.84727e-10 1.13338e-09 -4.45278e-11 -1.52844e-09 1.95265e-09 -6.23993e-11 -8.84722e-10 1.13338e-09 -4.45309e-11 7.73091 5.47488 0.417314 -8.84732e-10 1.13338e-09 -4.45278e-11 2.90554 0.965183 0.102902 -8.84717e-10 1.13338e-09 -4.45294e-11 10.2786 0.731801 0.0259123 -8.84728e-10 1.13338e-09 -4.45278e-11 2.22167 -0.733487 -0.20892 9.64634e-14 -1.70951e-14 1.54505e-13 -89.6182 24.8127 10.1508 16.1407 -8.81859 -29.9702 0.146821 10.8582 -1.54474 -6.31846e-10 -1.07295e-09 -2.10079e-10 -1.09238e-09 -1.85171e-09 -3.56219e-10 -6.31863e-10 -1.07295e-09 -2.1005e-10 -7.73091 5.47488 -0.417314 -6.31845e-10 -1.07295e-09 -2.10076e-10 -2.90554 0.965183 -0.102902 -6.3185e-10 -1.07294e-09 -2.10083e-10 -10.2786 0.731801 -0.0259123 -6.31845e-10 -1.07294e-09 -2.10085e-10 -2.22167 -0.733487 0.20892 -2.03217e-16 0.0 -3.88251e-19 -2.46042 7.46636 -2.96127 0.00476004 -2.08056 0.0474666 -2.29547 -11.0525 -7.17313 2.03217e-16 0.0 3.88251e-19 5.55178 2.56116 -8.48543 -0.0488491 5.70385 -0.190162 2.15829 -12.212 21.7018
-6.64814 84.5494 36.1944 -3.91 -2.586 -0.5878 0.959075 0.666278 2.88805 -1.28156 -2.7564 0.599196 -3.08481 10.2238 -2.7218 4.03056 -8.79045 -4.67125 -0.0 0.0 0.0 -0.0 0.0 0.0 5.41073e-14 -8.64453e-15 1.1624e-13 96.3176 20.5192 -18.1033 -18.2801 -10.5724 35.2594 -0.444055 18.0421 2.62962 -3.79684e-10 4.92468e-10 9.70569e-11 -6.54063e-10 8.46832e-10 1.7413e-10 -3.79678e-10 4.92465e-10 9.70528e-11 7.73091 5.47488 0.417314 -3.79689e-10 4.92466e-10 9.70542e-11 2.90554 0.965183 0.102902 -3.79673e-10 4.92463e-10 9.70534e-11 10.2786 0.731801 0.0259123 -3.79686e-10 4.92464e-10 9.70551e-11 2.22167 -0.733487 -0.20892 5.40344e-14 -8.64608e-15 1.15846e-13 -96.2902 26.5073 11.0065 16.9362 -9.24121 -32.1413 0.179263 11.6092 -1.656 -3.26729e-10 -6.19789e-10 2.45974e-11 -5.63449e-10 -1.06862e-09 4.6637e-11 -3.26746e-10 -6.19788e-10 2.46238e-11 -7.73091 5.47488 -0.417314 -3.26729e-10 -6.1979e-10 2.4601e-11 -2.90554 0.965183 -0.102902 -3.26734e-10 -6.19789e-10 2.45936e-11 -10.2786 0.731801 -0.0259123 -3.26727e-10 -6.19786e-10 2.45907e-11 -2.22167 -0.733487 0.20892 -2.03217e-16 0.0 -3.88251e-19 -2.54762 8.1395 -3.2146 0.00569986 -2.0807 0.0557722 -2.56795 -12.0987 -7.70798 2.03217e-16 0.0 3.88251e-19 6.15588 3.14378 -9.07823 -0.0522261 5.74348 -0.201484 2.6281 -12.9447 23.2629
